<?xml version="1.0" encoding="UTF-8" standalone="no"?>
<svg
   id="Capa_1"
   x="0px"
   y="0px"
   viewBox="0 0 119 30"
   style="enable-background:new 0 0 119 30;"
   xml:space="preserve"
   version="1.1"
   sodipodi:docname="eclub-logo-primary-full-color.svg"
   inkscape:version="1.2.2 (732a01da63, 2022-12-09)"
   xmlns:inkscape="http://www.inkscape.org/namespaces/inkscape"
   xmlns:sodipodi="http://sodipodi.sourceforge.net/DTD/sodipodi-0.dtd"
   xmlns="http://www.w3.org/2000/svg"
   xmlns:svg="http://www.w3.org/2000/svg"><defs
     id="defs13" /><sodipodi:namedview
     id="namedview11"
     pagecolor="#ffffff"
     bordercolor="#000000"
     borderopacity="0.25"
     inkscape:showpageshadow="2"
     inkscape:pageopacity="0.0"
     inkscape:pagecheckerboard="0"
     inkscape:deskcolor="#d1d1d1"
     showgrid="false"
     inkscape:zoom="2.5714286"
     inkscape:cx="7.5833333"
     inkscape:cy="11.861111"
     inkscape:window-width="1366"
     inkscape:window-height="745"
     inkscape:window-x="-8"
     inkscape:window-y="-8"
     inkscape:window-maximized="1"
     inkscape:current-layer="Capa_1" /><style
     type="text/css"
     id="style2">	.st0-logo-color{fill:#F00E51;}	.st1-logo-color{fill:#666666;}</style><path
     id="Trazado_774"
     class="st0-logo-color"
     d="M97,2.5h0.2c3.1,0,6.1,0,9.2,0c1.6,0,3.2,0.3,4.7,1c2.1,0.9,3.4,3,3.5,5.3 c0.1,1,0,1.9-0.3,2.8c-0.4,1-1,1.9-1.8,2.5c0,0,0,0-0.1,0.1l0,0c0.4,0.2,0.7,0.3,1.1,0.5c1.7,1,2.9,2.7,3,4.7c0.2,1.2,0,2.4-0.4,3.6 c-0.5,1.3-1.5,2.4-2.8,3.1c-1.2,0.7-2.6,1-3.9,1.1c-0.9,0.1-1.8,0.1-2.6,0.1c-3.1,0-6.2,0-9.3,0h-0.3L97,2.5z M101.2,23.4 C101.3,23.4,101.3,23.4,101.2,23.4c2.3,0,4.6,0,6.8,0c0.7,0,1.4-0.1,2.1-0.4c0.7-0.2,1.3-0.7,1.7-1.4c0.3-0.5,0.4-1.2,0.3-1.8 c0-1.2-0.7-2.2-1.8-2.7c-1-0.4-2-0.6-3-0.6c-1.9,0-3.9,0-5.8,0c-0.1,0-0.2,0-0.2,0L101.2,23.4z M101.2,12.7 C101.3,12.7,101.3,12.7,101.2,12.7c1.6,0,3.2,0,4.7,0c0.9,0,1.7-0.1,2.5-0.5c0.6-0.2,1.2-0.6,1.5-1.2c0.3-0.5,0.4-1.1,0.4-1.6 c0-1.2-0.7-2.3-1.9-2.6c-0.9-0.3-1.7-0.4-2.6-0.4c-1.5,0-3,0-4.4,0h-0.2V12.7z" /><path
     id="Trazado_775"
     class="st0-logo-color"
     d="M70.6,2.6h4.2v0.3c0,4.9,0,9.8,0,14.7c0,1.2,0.3,2.5,0.9,3.5c0.7,1.2,1.8,2.1,3.2,2.4 c1.6,0.4,3.2,0.4,4.8,0c1.7-0.5,3.1-1.8,3.7-3.5c0.3-0.9,0.5-1.9,0.5-2.8c0-4.8,0-9.5,0-14.3V2.6h4.2c0,0.1,0,0.1,0,0.2 c0,4.9,0,9.7,0,14.6c0,2.6-0.9,5.2-2.7,7.2c-1.3,1.4-2.9,2.4-4.8,2.8c-0.9,0.2-1.9,0.3-2.8,0.4c-1.8,0.1-3.6-0.2-5.3-0.8 c-1.2-0.4-2.3-1.1-3.1-2c-1.4-1.4-2.3-3.3-2.7-5.3c-0.2-0.8-0.2-1.7-0.2-2.6c0-4.8,0-9.5,0-14.3L70.6,2.6z" /><path
     id="Trazado_776"
     class="st0-logo-color"
     d="M49.3,6.7L47,10c-0.2-0.2-0.5-0.5-0.7-0.7c-2.8-2.9-7-3.8-10.8-2.4c-2.5,1.1-4.3,3.3-4.8,6 c-0.4,1.7-0.3,3.6,0.3,5.2c1,2.9,3.5,4.9,6.5,5.3c1.9,0.3,3.9,0.1,5.7-0.7c1.2-0.5,2.2-1.3,3.1-2.2c0.2-0.2,0.4-0.5,0.7-0.7l2.3,3.2 c-0.3,0.4-0.7,0.7-1,1.1c-0.9,0.9-1.9,1.6-3,2.1c-1.5,0.7-3.2,1.2-4.8,1.3c-1.6,0.1-3.2,0-4.8-0.3c-2-0.5-3.8-1.4-5.3-2.8 c-1.2-1.1-2.2-2.4-2.9-3.8c-0.7-1.4-1.1-2.9-1.2-4.4c-0.2-1.9,0-3.9,0.7-5.7c0.6-1.6,1.5-3.1,2.6-4.3c1-1.1,2.1-1.9,3.4-2.6 c1.2-0.6,2.6-1.1,4-1.2c2.1-0.3,4.3-0.1,6.3,0.4c1.7,0.5,3.3,1.4,4.6,2.6C48.4,5.8,48.8,6.3,49.3,6.7z"
     style="fill:#f00e54;fill-opacity:1" /><path
     id="Trazado_777"
     class="st1-logo-color"
     d="M15.1,20.2H8.5c-0.1,0-0.1,0-0.2,0c-0.2,0-0.3,0.1-0.3,0.3v0.1c0.2,0.6,0.6,1.2,1,1.8 c0.8,1,2,1.7,3.3,1.9c0.4,0.1,0.8,0.1,1.2,0.1c0.1,0,0.2,0,0.2,0c0.5,0,0.6,0.1,0.6,0.6c0,0.7,0,1.4,0,2.1c0,0.3-0.1,0.4-0.4,0.4 c-1.4,0-2.8-0.2-4.1-0.8c-2.5-1.2-4.4-3.4-5-6.2c-0.1-0.3-0.1-0.3-0.4-0.3c-0.5,0-1,0-1.5,0c-0.3,0-0.4-0.1-0.4-0.4 c0-0.8,0-1.7,0-2.5c0-0.3,0.1-0.4,0.4-0.4c0.5,0,1,0,1.4,0c0.2,0,0.4-0.1,0.4-0.3l0,0c0.8-3.6,3.6-6.4,7.3-7 c2.7-0.5,5.5,0.3,7.5,2.1c0.9,0.8,1.6,1.7,2.1,2.8c0.3,0.7,0.5,1.5,0.5,2.3c0,1,0,2,0,2.9c0,0.4,0,0.4-0.4,0.4L15.1,20.2z  M19.1,16.9c-0.1-0.6-0.3-1.1-0.6-1.6c-1.2-1.9-3.3-3-5.6-2.7c-2.2,0.2-4.2,1.6-4.9,3.8c-0.2,0.4-0.1,0.5,0.4,0.5H19.1L19.1,16.9z" /><path
     id="Trazado_778"
     class="st0-logo-color"
     d="M56.6,23.4h13.2v3.9H52.4V2.6h4.2V23.4z" /><path
     id="Trazado_779"
     class="st1-logo-color"
     d="M18.4,25.9c0,0.9-0.7,1.7-1.7,1.7c-0.9,0-1.7-0.7-1.7-1.7c0-0.9,0.7-1.7,1.7-1.7 C17.7,24.3,18.4,25,18.4,25.9L18.4,25.9z" /></svg>
